<?xml version="1.0" standalone="no"?>
<!DOCTYPE svg PUBLIC "-//W3C//DTD SVG 20010904//EN"
 "http://www.w3.org/TR/2001/REC-SVG-20010904/DTD/svg10.dtd">
<svg version="1.0" xmlns="http://www.w3.org/2000/svg"
 width="260.000000pt" height="260.000000pt" viewBox="0 0 260.000000 260.000000"
 preserveAspectRatio="xMidYMid meet">
<metadata>
Created by potrace 1.11, written by Peter Selinger 2001-2013
</metadata>
<g transform="translate(0.000000,260.000000) scale(0.100000,-0.100000)"
fill="#000000" stroke="none">
<path d="M1208 1706 c-3 -9 -2 -374 1 -416 1 -13 55 -15 423 -14 l423 1 48
-25 c69 -36 144 -29 192 18 63 61 71 149 20 215 -88 116 -268 63 -283 -83 l-4
-49 -94 0 -94 0 0 49 c0 117 -44 151 -192 151 -56 0 -98 5 -98 10 0 5 13 33
29 61 16 28 32 61 35 73 7 21 4 22 -30 20 -36 -3 -40 -8 -81 -82 -45 -82 -51
-110 -30 -139 11 -15 30 -18 135 -18 101 -1 124 -4 137 -18 13 -14 21 -59 16
-96 -1 -7 -75 -10 -238 -10 l-238 1 -1 171 c0 94 -4 176 -8 182 -8 14 -64 12
-68 -2z m1030 -249 c28 -13 42 -62 29 -100 -17 -52 -96 -69 -138 -31 -40 36
-27 113 23 137 31 15 44 14 86 -6z"/>
<path d="M1030 1681 c-13 -25 -4 -48 22 -55 30 -7 58 11 58 38 0 38 -61 51
-80 17z"/>
<path d="M563 1568 c-18 -5 -42 -22 -55 -40 -20 -28 -22 -44 -23 -135 0 -117
10 -107 -99 -104 -32 1 -67 6 -77 11 -10 6 -20 10 -23 10 -5 0 -36 -54 -36
-64 0 -2 21 -11 47 -20 31 -11 82 -16 154 -16 l108 0 0 119 c-1 66 2 129 6
140 6 20 58 42 80 34 6 -2 10 -47 10 -113 -1 -108 0 -110 22 -111 13 0 106 -1
208 -1 102 0 193 1 203 1 17 1 19 13 19 149 l0 149 -38 1 -39 2 0 -114 0 -114
-147 2 -148 1 -3 112 -3 112 -67 -1 c-37 -1 -81 -5 -99 -10z"/>
<path d="M362 1508 c-28 -28 -9 -68 33 -68 15 0 45 27 45 40 0 15 -31 40 -49
40 -9 0 -22 -5 -29 -12z"/>
<path d="M366 1397 c-28 -21 -17 -61 17 -65 35 -4 57 13 52 40 -7 37 -38 48
-69 25z"/>
<path d="M690 996 c0 -43 -3 -56 -15 -56 -11 0 -15 11 -15 36 0 45 -24 41 -28
-5 -4 -42 -35 -39 -42 4 -4 23 -11 31 -32 33 -31 4 -59 -28 -51 -58 6 -24 42
-31 138 -27 l70 2 0 59 c0 39 -4 61 -12 64 -10 3 -13 -12 -13 -52z m-124 -31
c3 -22 -12 -27 -27 -9 -10 13 -10 17 1 24 16 10 23 6 26 -15z"/>
<path d="M747 1043 c-2 -5 -5 -31 -6 -60 -2 -47 0 -53 21 -58 13 -3 41 -4 63
-3 37 3 40 5 43 35 2 24 -2 34 -18 43 -24 13 -71 3 -49 -10 7 -5 16 -7 21 -4
4 2 12 -4 18 -15 12 -23 7 -27 -35 -26 -29 0 -30 2 -33 53 -3 46 -13 66 -25
45z"/>
<path d="M948 998 c-3 -56 -20 -68 -28 -21 -9 52 -30 37 -30 -21 0 -47 -3 -54
-22 -59 -12 -4 -19 -10 -15 -14 16 -15 38 -10 57 14 11 14 30 26 43 27 20 1
22 6 23 51 0 55 -4 75 -17 75 -4 0 -9 -24 -11 -52z"/>
<path d="M1000 988 c0 -50 3 -65 14 -65 19 0 18 118 -1 125 -10 3 -13 -14 -13
-60z"/>
<path d="M1235 1043 c-35 -9 -39 -22 -6 -21 19 1 31 6 31 15 0 7 -1 12 -2 12
-2 -1 -12 -3 -23 -6z"/>
<path d="M1298 1044 c-7 -7 11 -76 23 -88 16 -18 20 2 8 48 -11 44 -18 53 -31
40z"/>
<path d="M1350 996 c0 -53 -1 -56 -25 -56 -14 0 -25 -4 -25 -9 0 -9 264 -13
285 -5 11 5 12 110 1 121 -12 12 -20 -8 -21 -52 0 -25 -3 -45 -7 -45 -5 0 -12
0 -16 0 -5 0 -9 21 -8 47 1 29 -4 48 -11 50 -9 3 -13 -11 -13 -49 0 -42 -4
-55 -15 -55 -8 0 -15 8 -15 18 0 24 -29 51 -52 47 -22 -3 -20 -21 2 -25 14 -2
22 -14 21 -30 0 -4 -17 -8 -36 -10 -27 -1 -35 2 -36 15 0 9 -1 32 -2 51 -1 19
-8 36 -14 38 -10 3 -13 -11 -13 -51z"/>
<path d="M1881 1018 c3 -59 -1 -78 -16 -78 -10 0 -15 10 -15 30 0 36 -21 48
-56 32 -40 -19 -30 -72 14 -78 28 -5 24 -14 -7 -20 -17 -4 -30 -12 -28 -18 7
-21 37 -17 61 8 14 13 36 26 48 28 21 3 23 9 26 66 2 51 0 62 -13 62 -11 0
-15 -9 -14 -32z m-55 -53 c1 -9 -6 -15 -17 -15 -22 0 -24 11 -7 28 13 13 21 9
24 -13z"/>
<path d="M1937 1043 c-3 -5 -4 -33 -3 -63 l1 -55 77 -2 c67 -1 77 1 81 18 12
46 -26 85 -58 59 -9 -7 -15 -8 -20 0 -13 21 -25 9 -25 -26 0 -57 -24 -36 -28
24 -3 47 -13 65 -25 45z m130 -87 c-7 -18 -43 -14 -39 5 5 19 25 30 36 19 5
-5 6 -15 3 -24z"/>
<path d="M1100 1029 c0 -5 14 -9 30 -9 17 0 30 4 30 8 0 5 -13 9 -30 10 -16 0
-30 -4 -30 -9z"/>
<path d="M1108 999 c-21 -12 -24 -52 -5 -67 6 -6 49 -10 93 -10 81 0 82 0 82
26 0 40 -15 61 -41 58 -37 -4 -49 -16 -45 -41 4 -16 1 -22 -9 -18 -7 3 -13 17
-13 32 0 20 -5 27 -22 28 -13 1 -31 -2 -40 -8z m38 -34 c3 -22 -12 -27 -27 -9
-10 13 -10 17 1 24 16 10 23 6 26 -15z m104 -6 c0 -20 -15 -26 -25 -9 -9 15 3
43 15 35 5 -3 10 -15 10 -26z"/>
<path d="M1690 995 c0 -8 5 -15 10 -15 6 0 10 7 10 15 0 8 -4 15 -10 15 -5 0
-10 -7 -10 -15z"/>
<path d="M1727 1003 c-2 -5 -5 -25 -5 -46 -1 -21 -4 -42 -7 -47 -11 -18 -35 3
-35 31 0 31 -14 39 -24 13 -16 -42 9 -75 51 -68 36 7 43 19 43 77 0 42 -11 61
-23 40z"/>
<path d="M600 899 c0 -5 9 -9 20 -9 11 0 23 0 27 -1 4 0 9 4 11 9 1 5 -11 9
-28 10 -16 0 -30 -4 -30 -9z"/>
<path d="M810 900 c0 -5 7 -10 16 -10 8 0 12 5 9 10 -3 6 -10 10 -16 10 -5 0
-9 -4 -9 -10z"/>
</g>
</svg>
